<?xml version="1.0" standalone="no"?>
<!DOCTYPE svg PUBLIC "-//W3C//DTD SVG 20010904//EN"
 "http://www.w3.org/TR/2001/REC-SVG-20010904/DTD/svg10.dtd">
<svg version="1.0" xmlns="http://www.w3.org/2000/svg"
 width="296.000000pt" height="296.000000pt" viewBox="0 0 296.000000 296.000000"
 preserveAspectRatio="xMidYMid meet">
<metadata>
Created by potrace 1.11, written by Peter Selinger 2001-2013
</metadata>
<g transform="translate(0.000000,296.000000) scale(0.100000,-0.100000)"
fill="#000000" stroke="none">
<path d="M1400 2920 l0 -40 -40 0 -40 0 0 -40 0 -40 -40 0 -40 0 0 -40 0 -40
280 0 280 0 0 -40 0 -40 120 0 120 0 0 40 0 40 -40 0 -40 0 0 40 0 40 -80 0
-80 0 0 40 0 40 -40 0 -40 0 0 40 0 40 -160 0 -160 0 0 -40z"/>
<path d="M680 2680 l0 -40 -80 0 -80 0 0 -40 0 -40 -80 0 -80 0 0 -40 0 -40
-40 0 -40 0 0 -120 0 -120 120 0 120 0 0 -40 0 -40 -40 0 -40 0 0 -40 0 -40
-40 0 -40 0 0 -80 0 -80 -40 0 -40 0 0 -120 0 -120 -40 0 -40 0 0 -200 0 -200
40 0 40 0 0 -120 0 -120 40 0 40 0 0 -80 0 -80 40 0 40 0 0 -40 0 -40 40 0 40
0 0 -40 0 -40 40 0 40 0 0 -40 0 -40 80 0 80 0 0 -40 0 -40 80 0 80 0 0 -40 0
-40 280 0 280 0 0 120 0 120 -40 0 -40 0 0 40 0 40 -40 0 -40 0 0 40 0 40 -40
0 -40 0 0 40 0 40 -40 0 -40 0 0 40 0 40 -40 0 -40 0 0 40 0 40 -40 0 -40 0 0
40 0 40 -40 0 -40 0 0 80 0 80 40 0 40 0 0 -40 0 -40 40 0 40 0 0 -40 0 -40
40 0 40 0 0 -40 0 -40 40 0 40 0 0 -40 0 -40 40 0 40 0 0 -40 0 -40 40 0 40 0
0 -40 0 -40 40 0 40 0 0 -40 0 -40 40 0 40 0 0 -40 0 -40 40 0 40 0 0 -40 0
-40 40 0 40 0 0 40 0 40 40 0 40 0 0 80 0 80 80 0 80 0 0 120 0 120 40 0 40 0
0 160 0 160 -40 0 -40 0 0 80 0 80 -40 0 -40 0 0 40 0 40 -40 0 -40 0 0 40 0
40 -40 0 -40 0 0 40 0 40 -200 0 -200 0 0 -40 0 -40 -40 0 -40 0 0 -40 0 -40
-40 0 -40 0 0 -40 0 -40 120 0 120 0 0 -40 0 -40 40 0 40 0 0 -80 0 -80 -40 0
-40 0 0 -40 0 -40 -40 0 -40 0 0 -40 0 -40 -40 0 -40 0 0 40 0 40 -80 0 -80 0
0 40 0 40 -40 0 -40 0 0 200 0 200 40 0 40 0 0 40 0 40 40 0 40 0 0 40 0 40
80 0 80 0 0 40 0 40 200 0 200 0 0 -40 0 -40 80 0 80 0 0 -40 0 -40 80 0 80 0
0 -80 0 -80 40 0 40 0 0 -80 0 -80 40 0 40 0 0 -200 0 -200 -40 0 -40 0 0 -80
0 -80 -40 0 -40 0 0 -80 0 -80 -40 0 -40 0 0 -40 0 -40 -40 0 -40 0 0 -40 0
-40 -40 0 -40 0 0 -80 0 -80 40 0 40 0 0 -40 0 -40 40 0 40 0 0 -40 0 -40 40
0 40 0 0 -40 0 -40 80 0 80 0 0 40 0 40 40 0 40 0 0 40 0 40 40 0 40 0 0 40 0
40 40 0 40 0 0 40 0 40 40 0 40 0 0 80 0 80 40 0 40 0 0 80 0 80 40 0 40 0 0
120 0 120 40 0 40 0 0 240 0 240 -40 0 -40 0 0 160 0 160 40 0 40 0 0 160 0
160 -40 0 -40 0 0 80 0 80 -40 0 -40 0 0 40 0 40 -40 0 -40 0 0 40 0 40 -160
0 -160 0 0 -40 0 -40 40 0 40 0 0 -40 0 -40 -80 0 -80 0 0 40 0 40 -80 0 -80
0 0 40 0 40 -120 0 -120 0 0 40 0 40 -280 0 -280 0 0 -40 0 -40 -80 0 -80 0 0
-40 0 -40 -80 0 -80 0 0 -40 0 -40 -80 0 -80 0 0 40 0 40 40 0 40 0 0 40 0 40
40 0 40 0 0 40 0 40 120 0 120 0 0 40 0 40 -200 0 -200 0 0 -40z m0 -320 l0
-40 -40 0 -40 0 0 -40 0 -40 -40 0 -40 0 0 40 0 40 40 0 40 0 0 40 0 40 40 0
40 0 0 -40z m1680 0 l0 -40 40 0 40 0 0 -40 0 -40 40 0 40 0 0 -40 0 -40 40 0
40 0 0 -80 0 -80 40 0 40 0 0 -40 0 -40 -40 0 -40 0 0 40 0 40 -40 0 -40 0 0
80 0 80 -40 0 -40 0 0 40 0 40 -40 0 -40 0 0 40 0 40 -40 0 -40 0 0 40 0 40
40 0 40 0 0 -40z m-1680 -720 l0 -40 40 0 40 0 0 -40 0 -40 40 0 40 0 0 -40 0
-40 40 0 40 0 0 -40 0 -40 -40 0 -40 0 0 40 0 40 -40 0 -40 0 0 40 0 40 -40 0
-40 0 0 40 0 40 -40 0 -40 0 0 40 0 40 40 0 40 0 0 -40z"/>
<path d="M360 480 l0 -80 40 0 40 0 0 -40 0 -40 40 0 40 0 0 -40 0 -40 80 0
80 0 0 -40 0 -40 80 0 80 0 0 -40 0 -40 80 0 80 0 0 -40 0 -40 320 0 320 0 0
40 0 40 160 0 160 0 0 40 0 40 -40 0 -40 0 0 40 0 40 -40 0 -40 0 0 40 0 40
-40 0 -40 0 0 40 0 40 -40 0 -40 0 0 40 0 40 -40 0 -40 0 0 -40 0 -40 -40 0
-40 0 0 -40 0 -40 -320 0 -320 0 0 40 0 40 -80 0 -80 0 0 40 0 40 -80 0 -80 0
0 40 0 40 -80 0 -80 0 0 -80z"/>
</g>
</svg>
